<?xml version="1.0" encoding="UTF-8" standalone="no" ?>
<!DOCTYPE svg PUBLIC "-//W3C//DTD SVG 1.1//EN" "http://www.w3.org/Graphics/SVG/1.1/DTD/svg11.dtd">
<svg xmlns="http://www.w3.org/2000/svg" xmlns:xlink="http://www.w3.org/1999/xlink" version="1.1" width="405" height="405" viewBox="0 0 300 300" xml:space="preserve">
<desc>Created with Fabric.js 3.6.3</desc>
<defs>
</defs>
<g transform="matrix(2.59 0 0 2.59 788.8 149.68)"  >
<g style=""   >
		<g transform="matrix(1 0 0 1 -246.05 -0.15)"  >
<path style="stroke: none; stroke-width: 1; stroke-dasharray: none; stroke-linecap: butt; stroke-dashoffset: 0; stroke-linejoin: miter; stroke-miterlimit: 4; fill: rgb(0,80,158); fill-rule: nonzero; opacity: 1;"  transform=" translate(-79.95, -325.85)" d="M 52.7 298.6 h 54.5 v 54.5 H 52.7 V 298.6 z M 107.3 271.3 H 52.7 c -15.1 0 -27.3 12.2 -27.3 27.3 v 54.5 c 0 15 12.2 27.3 27.3 27.3 h 54.5 c 15.1 0 27.3 -12.2 27.3 -27.3 v -54.5 C 134.5 283.5 122.3 271.3 107.3 271.3" stroke-linecap="round" />
</g>
		<g transform="matrix(1 0 0 1 -246.2 -0.3)"  >
<path style="stroke: none; stroke-width: 1; stroke-dasharray: none; stroke-linecap: butt; stroke-dashoffset: 0; stroke-linejoin: miter; stroke-miterlimit: 4; fill: rgb(0,80,158); fill-rule: nonzero; opacity: 1;"  transform=" translate(-79.8, -325.7)" d="M 79.8 303.3 c -12.4 0 -22.4 10 -22.4 22.4 c 0 12.4 10 22.4 22.4 22.4 c 12.4 0 22.4 -10 22.4 -22.4 C 102.2 313.3 92.2 303.3 79.8 303.3" stroke-linecap="round" />
</g>
		<g transform="matrix(1 0 0 1 -96.9 0.75)"  >
<polygon style="stroke: none; stroke-width: 1; stroke-dasharray: none; stroke-linecap: butt; stroke-dashoffset: 0; stroke-linejoin: miter; stroke-miterlimit: 4; fill: rgb(0,0,0); fill-rule: nonzero; opacity: 1;"  points="-18.3,-55.25 34.8,21.95 34.8,-37.45 34.7,-51.65 18.7,-51.65 18.7,-55.25 53,-55.25 53,-51.65 39.7,-51.65 39.6,-37.45 39.6,54.45 37.1,55.25 -34.1,-48.35 -34.1,34.85 -33.9,49.35 -17.5,49.35 -17.5,53.05 -53,53.05 -53,49.35 -38.8,49.35 -38.7,34.85 -38.7,-37.45 -38.8,-51.65 -53,-51.65 -53,-55.25 " />
</g>
		<g transform="matrix(1 0 0 1 14.05 -0.25)"  >
<path style="stroke: none; stroke-width: 1; stroke-dasharray: none; stroke-linecap: butt; stroke-dashoffset: 0; stroke-linejoin: miter; stroke-miterlimit: 4; fill: rgb(0,0,0); fill-rule: nonzero; opacity: 1;"  transform=" translate(-340.05, -325.75)" d="M 388 271.5 v 34.7 h -4.6 c -0.5 -5.4 -1.1 -12.1 -5.8 -20.1 c -5.5 -9.4 -13 -9.8 -20.4 -10.1 h -8.6 l -0.2 13.8 v 70.8 l 0.2 15.7 h 16.6 v 3.7 h -50.3 v -3.7 h 16.6 l 0.2 -15.7 v -70.8 l -0.2 -13.8 h -7.1 c -8.9 0.1 -15.7 0.1 -22.1 10.4 c -5.1 8.1 -5.5 14.6 -5.8 19.8 h -4.4 v -34.7 H 388" stroke-linecap="round" />
</g>
		<g transform="matrix(1 0 0 1 123.85 0.75)"  >
<polygon style="stroke: none; stroke-width: 1; stroke-dasharray: none; stroke-linecap: butt; stroke-dashoffset: 0; stroke-linejoin: miter; stroke-miterlimit: 4; fill: rgb(0,0,0); fill-rule: nonzero; opacity: 1;"  points="-18.25,-55.25 34.85,21.95 34.85,-37.45 34.65,-51.65 18.75,-51.65 18.75,-55.25 52.95,-55.25 52.95,-51.65 39.75,-51.65 39.55,-37.45 39.55,54.45 37.15,55.25 -34.05,-48.35 -34.05,34.85 -33.95,49.35 -17.55,49.35 -17.55,53.05 -52.95,53.05 -52.95,49.35 -38.85,49.35 -38.65,34.85 -38.65,-37.45 -38.85,-51.65 -52.95,-51.65 -52.95,-55.25 " />
</g>
		<g transform="matrix(1 0 0 1 245.1 0.45)"  >
<path style="stroke: none; stroke-width: 1; stroke-dasharray: none; stroke-linecap: butt; stroke-dashoffset: 0; stroke-linejoin: miter; stroke-miterlimit: 4; fill: rgb(0,0,0); fill-rule: nonzero; opacity: 1;"  transform=" translate(-571.1, -326.45)" d="M 562.4 271.5 v 3.7 h -15.2 l -0.2 13 v 58.6 c 0.2 15.2 0.5 29.6 29 29.6 c 28.9 0 30.7 -12.6 31.2 -26.2 v -62 l -0.1 -13 h -15.5 v -3.7 h 33.9 v 3.7 h -13.4 l -0.1 13 v 55.9 c -0.2 20.1 -0.3 37.3 -40.1 37.3 c -5.7 0 -19.2 -0.6 -27.8 -4.1 c -13.7 -5.8 -14 -17.8 -14.1 -32.5 v -56.5 l -0.1 -13 h -13.2 v -3.7 H 562.4" stroke-linecap="round" />
</g>
</g>
</g>
</svg>